<svg width="98" height="26" viewBox="0 0 98 26" fill="none" xmlns="http://www.w3.org/2000/svg">
<path d="M4.48895 25.5537C3.26888 25.5537 2.20994 25.2544 1.31215 24.6559C0.437385 24.0574 0 22.9985 0 21.4791C0 20.3051 0.299263 19.3843 0.89779 18.7167C1.49632 18.0491 2.18692 17.5772 2.96961 17.3009C3.77532 17.0017 4.74217 16.7485 5.87017 16.5413L9.04696 15.9543V13.0192C9.04696 10.8783 7.97652 9.80785 5.83564 9.80785C5.05295 9.80785 4.33932 10.015 3.69475 10.4294C3.05018 10.8207 2.7279 11.2696 2.7279 11.7761C2.7279 12.0063 2.76243 12.1789 2.83149 12.294C2.87753 12.3631 2.94659 12.4322 3.03867 12.5012C3.15378 12.5703 3.25737 12.6163 3.34945 12.6393C3.76381 12.7544 4.07459 12.9156 4.28177 13.1228C4.51197 13.33 4.62707 13.6177 4.62707 13.986C4.62707 14.4695 4.47744 14.8148 4.17818 15.0219C3.90193 15.2291 3.54512 15.3327 3.10773 15.3327C2.60129 15.3327 2.14088 15.137 1.72652 14.7457C1.31215 14.3544 1.10497 13.7904 1.10497 13.0537C1.10497 12.202 1.33518 11.4653 1.79558 10.8438C2.27901 10.2222 2.88904 9.76181 3.62569 9.46255C4.38536 9.14027 5.15654 8.97912 5.93923 8.97912C7.45856 8.97912 8.77072 9.38198 9.87569 10.1877C10.9807 10.9704 11.5332 12.202 11.5332 13.8824V22.3769C11.5332 23.5279 11.89 24.1034 12.6036 24.1034C13.1791 24.1034 13.5935 23.7696 13.8467 23.1021C14.0999 22.4345 14.2265 21.6172 14.2265 20.6504H14.8481C14.8481 22.0316 14.6409 23.1941 14.2265 24.138C13.8352 25.0818 13.1215 25.5537 12.0856 25.5537C11.0958 25.5537 10.3476 25.266 9.84116 24.6905C9.35773 24.0919 9.093 23.2747 9.04696 22.2388L8.87431 22.1697C8.52901 22.9754 7.96501 23.7466 7.18232 24.4833C6.42265 25.1969 5.52486 25.5537 4.48895 25.5537ZM5.04144 24.3106C6.07735 24.3106 6.88306 23.9078 7.45856 23.1021C8.05709 22.2733 8.58656 21.2259 9.04696 19.9598V16.6794L6.04282 17.3355C4.93785 17.5657 4.13214 18.0261 3.62569 18.7167C3.14227 19.3843 2.90055 20.3396 2.90055 21.5827C2.90055 22.6416 3.11924 23.3668 3.55663 23.7581C3.99401 24.1265 4.48895 24.3106 5.04144 24.3106Z" fill="black"/>
<path d="M16.4413 24.3106H18.2369C18.5131 24.3106 18.7088 24.2531 18.8239 24.138C18.939 24.0229 18.9966 23.8272 18.9966 23.5509V2.14211C18.9966 1.86587 18.939 1.67019 18.8239 1.55509C18.7088 1.43999 18.5131 1.38244 18.2369 1.38244H16.4413V0.553711H21.4828V23.5509C21.4828 23.8272 21.5403 24.0229 21.6554 24.138C21.7705 24.2531 21.9662 24.3106 22.2424 24.3106H24.038V25.1393H16.4413V24.3106Z" fill="black"/>
<path d="M42.1942 25.5537C41.1123 25.5537 40.0994 25.1969 39.1556 24.4833C38.2348 23.7466 37.4981 22.7452 36.9456 21.4791C36.3931 20.213 36.1169 18.8088 36.1169 17.2664C36.1169 15.7241 36.3931 14.3198 36.9456 13.0537C37.4981 11.7876 38.2348 10.7977 39.1556 10.0841C40.0994 9.34745 41.1123 8.97912 42.1942 8.97912C43.092 8.97912 43.8977 9.27839 44.6114 9.87691C45.325 10.4524 45.8545 11.1545 46.1998 11.9833L46.3379 11.9487V2.14211C46.3379 1.86587 46.2803 1.67019 46.1652 1.55509C46.0501 1.43999 45.8545 1.38244 45.5782 1.38244H43.092V0.553711H48.8241V23.5509C48.8241 23.8272 48.8816 24.0229 48.9967 24.138C49.1118 24.2531 49.3075 24.3106 49.5837 24.3106H51.3793V25.1393H46.3379V22.5841L46.1998 22.5496C45.7624 23.4704 45.1984 24.207 44.5078 24.7595C43.8402 25.289 43.069 25.5537 42.1942 25.5537ZM42.5741 24.5869C43.2647 24.5869 43.8977 24.3336 44.4733 23.8272C45.0488 23.3207 45.4977 22.6301 45.8199 21.7554C46.1652 20.8576 46.3379 19.8907 46.3379 18.8548V15.678C46.3379 14.6421 46.1652 13.6868 45.8199 12.812C45.4977 11.9142 45.0488 11.2121 44.4733 10.7056C43.8977 10.1992 43.2647 9.94598 42.5741 9.94598C41.4461 9.94598 40.5943 10.579 40.0188 11.8451C39.4433 13.1113 39.1556 14.9184 39.1556 17.2664C39.1556 19.6145 39.4433 21.4216 40.0188 22.6877C40.5943 23.9538 41.4461 24.5869 42.5741 24.5869Z" fill="black"/>
<path d="M57.0582 5.11172C56.5518 5.11172 56.1259 4.93907 55.7806 4.59376C55.4353 4.24846 55.2626 3.82259 55.2626 3.31614C55.2626 2.78668 55.4353 2.3608 55.7806 2.03852C56.1259 1.69321 56.5518 1.52056 57.0582 1.52056C57.5877 1.52056 58.0136 1.69321 58.3359 2.03852C58.6812 2.3608 58.8538 2.78668 58.8538 3.31614C58.8538 3.82259 58.6812 4.24846 58.3359 4.59376C58.0136 4.93907 57.5877 5.11172 57.0582 5.11172ZM53.8124 24.3106H55.2626C55.5389 24.3106 55.7346 24.2531 55.8497 24.138C55.9648 24.0229 56.0223 23.8272 56.0223 23.5509V10.9819C56.0223 10.7056 55.9648 10.51 55.8497 10.3949C55.7346 10.2798 55.5389 10.2222 55.2626 10.2222H53.8124V9.39349H58.5085V23.5509C58.5085 23.8272 58.5661 24.0229 58.6812 24.138C58.7963 24.2531 58.9919 24.3106 59.2682 24.3106H60.7184V25.1393H53.8124V24.3106Z" fill="black"/>
<path d="M72.452 24.3106H74.2476C74.5239 24.3106 74.7195 24.2531 74.8346 24.138C74.9497 24.0229 75.0073 23.8272 75.0073 23.5509V2.14211C75.0073 1.86587 74.9497 1.67019 74.8346 1.55509C74.7195 1.43999 74.5239 1.38244 74.2476 1.38244H72.452V0.553711H77.4935V23.5509C77.4935 23.8272 77.551 24.0229 77.6661 24.138C77.7812 24.2531 77.9769 24.3106 78.2531 24.3106H80.0487V25.1393H72.452V24.3106Z" fill="black"/>
<path d="M84.6596 4.11034C84.015 3.62691 83.6928 3.12047 83.6928 2.591C83.6928 2.26872 83.7733 2.0155 83.9345 1.83134C84.1186 1.62415 84.3603 1.52056 84.6596 1.52056C84.9819 1.52056 85.2696 1.60113 85.5229 1.76227C85.7761 1.92342 86.0523 2.21117 86.3516 2.62553L89.5284 7.21807L89.0795 7.59791L84.6596 4.11034ZM86.8695 25.5537C85.6495 25.5537 84.5905 25.2544 83.6928 24.6559C82.818 24.0574 82.3806 22.9985 82.3806 21.4791C82.3806 20.3051 82.6799 19.3843 83.2784 18.7167C83.8769 18.0491 84.5675 17.5772 85.3502 17.3009C86.1559 17.0017 87.1228 16.7485 88.2508 16.5413L91.4276 15.9543V13.0192C91.4276 10.8783 90.3571 9.80785 88.2162 9.80785C87.4335 9.80785 86.7199 10.015 86.0754 10.4294C85.4308 10.8207 85.1085 11.2696 85.1085 11.7761C85.1085 12.0063 85.143 12.1789 85.2121 12.294C85.2581 12.3631 85.3272 12.4322 85.4193 12.5012C85.5344 12.5703 85.638 12.6163 85.73 12.6393C86.1444 12.7544 86.4552 12.9156 86.6624 13.1228C86.8926 13.33 87.0077 13.6177 87.0077 13.986C87.0077 14.4695 86.858 14.8148 86.5588 15.0219C86.2825 15.2291 85.9257 15.3327 85.4883 15.3327C84.9819 15.3327 84.5215 15.137 84.1071 14.7457C83.6928 14.3544 83.4856 13.7904 83.4856 13.0537C83.4856 12.202 83.7158 11.4653 84.1762 10.8438C84.6596 10.2222 85.2696 9.76181 86.0063 9.46255C86.766 9.14027 87.5371 8.97912 88.3198 8.97912C89.8392 8.97912 91.1513 9.38198 92.2563 10.1877C93.3613 10.9704 93.9137 12.202 93.9137 13.8824V22.3769C93.9137 23.5279 94.2706 24.1034 94.9842 24.1034C95.5597 24.1034 95.9741 23.7696 96.2273 23.1021C96.4805 22.4345 96.6071 21.6172 96.6071 20.6504H97.2287C97.2287 22.0316 97.0215 23.1941 96.6071 24.138C96.2158 25.0818 95.5021 25.5537 94.4662 25.5537C93.4764 25.5537 92.7282 25.266 92.2218 24.6905C91.7383 24.0919 91.4736 23.2747 91.4276 22.2388L91.2549 22.1697C90.9096 22.9754 90.3456 23.7466 89.5629 24.4833C88.8033 25.1969 87.9055 25.5537 86.8695 25.5537ZM87.422 24.3106C88.4579 24.3106 89.2637 23.9078 89.8392 23.1021C90.4377 22.2733 90.9672 21.2259 91.4276 19.9598V16.6794L88.4234 17.3355C87.3184 17.5657 86.5127 18.0261 86.0063 18.7167C85.5229 19.3843 85.2811 20.3396 85.2811 21.5827C85.2811 22.6416 85.4998 23.3668 85.9372 23.7581C86.3746 24.1265 86.8695 24.3106 87.422 24.3106Z" fill="black"/>
</svg>
