<svg width="23" height="40" viewBox="0 0 23 40" fill="none" xmlns="http://www.w3.org/2000/svg">
<path d="M15.5182 0.661865C12.786 0.661865 10.4258 1.49477 8.76917 3.14052C7.11253 4.78627 6.21056 7.19839 6.21056 10.1587V14.0293H1.19777C0.976197 14.0293 0.763707 14.1174 0.607031 14.274C0.450356 14.4307 0.362327 14.6432 0.362305 14.8648V21.5485C0.362327 21.7701 0.450356 21.9825 0.607031 22.1392C0.763707 22.2959 0.976197 22.3839 1.19777 22.3839H6.21056V38.2578C6.21058 38.4793 6.29861 38.6918 6.45528 38.8485C6.61196 39.0052 6.82445 39.0932 7.04602 39.0932H13.7297C13.9513 39.0932 14.1638 39.0052 14.3205 38.8485C14.4772 38.6918 14.5652 38.4793 14.5652 38.2578V22.3839H20.4135C20.6169 22.3839 20.8134 22.3097 20.9661 22.1751C21.1187 22.0405 21.2169 21.8548 21.2424 21.6529L22.0779 14.9692C22.0927 14.8516 22.0823 14.7322 22.0474 14.6189C22.0125 14.5056 21.9539 14.4011 21.8755 14.3122C21.7971 14.2233 21.7007 14.1521 21.5927 14.1033C21.4846 14.0545 21.3675 14.0293 21.2489 14.0293H14.5652V10.6874C14.5652 9.75451 15.3032 9.01651 16.2361 9.01651H21.2489C21.4705 9.01649 21.683 8.92846 21.8397 8.77179C21.9963 8.61511 22.0844 8.40262 22.0844 8.18105V1.78615C22.0841 1.58368 22.0104 1.38819 21.8768 1.23602C21.7432 1.08386 21.559 0.985359 21.3582 0.958847C20.62 0.860891 17.9548 0.661865 15.5182 0.661865ZM15.5182 2.33279C17.5549 2.33279 19.5238 2.49575 20.4135 2.57919V7.34558H16.2361C14.4003 7.34558 12.8943 8.85165 12.8943 10.6874V14.8648C12.8943 15.0863 12.9823 15.2988 13.139 15.4555C13.2957 15.6122 13.5082 15.7002 13.7297 15.7002H20.3025L19.6759 20.713H13.7297C13.5082 20.713 13.2957 20.8011 13.139 20.9577C12.9823 21.1144 12.8943 21.3269 12.8943 21.5485V37.4223H7.88149V21.5485C7.88146 21.3269 7.79344 21.1144 7.63676 20.9577C7.48008 20.8011 7.26759 20.713 7.04602 20.713H2.03323V15.7002H7.04602C7.26759 15.7002 7.48008 15.6122 7.63676 15.4555C7.79344 15.2988 7.88146 15.0863 7.88149 14.8648V10.1587C7.88149 7.53152 8.65037 5.61359 9.9473 4.32518C11.2442 3.03678 13.1197 2.33279 15.5182 2.33279Z" fill="black"/>
</svg>
