<svg width="39" height="40" viewBox="0 0 39 40" fill="none" xmlns="http://www.w3.org/2000/svg">
<path d="M11.5134 0.734375C5.25302 0.734375 0.158691 5.8287 0.158691 12.0891V27.811C0.158691 34.0714 5.25302 39.1657 11.5134 39.1657H27.2353C33.4957 39.1657 38.5901 34.0714 38.5901 27.811V12.0891C38.5901 5.8287 33.4957 0.734375 27.2353 0.734375H11.5134ZM11.5134 2.48126H27.2353C32.5515 2.48126 36.8432 6.77292 36.8432 12.0891V27.811C36.8432 33.1272 32.5515 37.4189 27.2353 37.4189H11.5134C6.19724 37.4189 1.90557 33.1272 1.90557 27.811V12.0891C1.90557 6.77292 6.19724 2.48126 11.5134 2.48126ZM29.8557 7.7219C29.3924 7.7219 28.948 7.90594 28.6204 8.23355C28.2928 8.56115 28.1088 9.00548 28.1088 9.46878C28.1088 9.93208 28.2928 10.3764 28.6204 10.704C28.948 11.0316 29.3924 11.2157 29.8557 11.2157C30.319 11.2157 30.7633 11.0316 31.0909 10.704C31.4185 10.3764 31.6025 9.93208 31.6025 9.46878C31.6025 9.00548 31.4185 8.56115 31.0909 8.23355C30.7633 7.90594 30.319 7.7219 29.8557 7.7219ZM19.3744 10.3422C14.0785 10.3422 9.76653 14.6541 9.76653 19.9501C9.76653 25.246 14.0785 29.5579 19.3744 29.5579C24.6703 29.5579 28.9822 25.246 28.9822 19.9501C28.9822 14.6541 24.6703 10.3422 19.3744 10.3422ZM19.3744 12.0891C23.7262 12.0891 27.2353 15.5982 27.2353 19.9501C27.2353 24.3019 23.7262 27.811 19.3744 27.811C15.0225 27.811 11.5134 24.3019 11.5134 19.9501C11.5134 15.5982 15.0225 12.0891 19.3744 12.0891Z" fill="black"/>
</svg>
