<svg width="57" height="19" viewBox="0 0 57 19" fill="none" xmlns="http://www.w3.org/2000/svg">
<path d="M0.856689 15.3409C0.856689 17.4209 2.23469 18.7469 4.05469 18.7469C5.66669 18.7469 6.73269 17.9409 7.27869 17.3949L7.48669 18.0969C7.56469 18.3309 7.64269 18.4869 7.92869 18.4869H8.42269C8.68269 18.4869 8.91669 18.2529 8.91669 17.9929V12.2209C8.91669 9.17887 8.26669 7.82687 5.61469 7.82687C3.66469 7.82687 2.15669 8.42487 2.00069 8.50287C1.76669 8.60687 1.61069 8.76287 1.71469 9.07487L1.92269 9.72486C2.00069 9.95887 2.15669 10.0889 2.41669 9.98487C2.88469 9.80287 4.10669 9.41287 5.53669 9.41287C7.01869 9.41287 7.25269 10.2969 7.22669 12.2209C7.22669 12.2209 6.13469 11.8829 5.01669 11.8829C2.33869 11.8829 0.856689 13.3649 0.856689 15.3409ZM2.52069 15.3409C2.52069 13.9889 3.56069 13.2609 5.01669 13.2609C6.16069 13.2609 6.88869 13.4949 7.20069 13.6769V15.7309C6.75869 16.3809 5.64069 17.1869 4.34069 17.1869C3.22269 17.1869 2.52069 16.3809 2.52069 15.3409Z" fill="black"/>
<path d="M12.5547 17.9929C12.5547 18.2529 12.7887 18.4869 13.0487 18.4869H13.5947C13.8287 18.4869 13.9847 18.3049 14.0367 18.0709L14.1927 17.3689C14.1927 17.3689 15.4407 18.7469 17.3907 18.7469C20.0427 18.7469 22.1227 16.2509 22.1227 13.2609C22.1227 10.2189 20.2507 7.82687 17.1307 7.82687C15.4147 7.82687 14.3487 8.50287 14.3487 8.50287V0.780865C14.3487 0.520865 14.1147 0.286865 13.8547 0.286865H13.0487C12.7887 0.286865 12.5547 0.520865 12.5547 0.780865V17.9929ZM14.3747 15.3929V10.1929C14.3747 10.1929 15.4667 9.56886 16.8967 9.56886C19.1587 9.56886 20.3027 11.2069 20.3027 13.2869C20.3027 15.3149 19.1067 17.1089 17.2087 17.1089C15.3367 17.1089 14.3747 15.3929 14.3747 15.3929Z" fill="black"/>
<path d="M24.3176 13.2609C24.3176 16.2509 26.6056 18.7469 29.4916 18.7469C32.3776 18.7469 34.6656 16.2509 34.6656 13.2609C34.6656 10.3229 32.3776 7.82687 29.4916 7.82687C26.6056 7.82687 24.3176 10.3229 24.3176 13.2609ZM26.1116 13.2609C26.1116 11.2069 27.5936 9.54287 29.4916 9.54287C31.3896 9.54287 32.8716 11.2069 32.8716 13.2609C32.8716 15.3669 31.3896 17.0569 29.4916 17.0569C27.5936 17.0569 26.1116 15.3669 26.1116 13.2609Z" fill="black"/>
<path d="M37.4846 14.0409C37.4846 16.7969 38.4986 18.7469 41.5146 18.7469C43.6726 18.7469 44.8946 17.3689 44.8946 17.3689L45.0766 18.0449C45.1546 18.3049 45.2586 18.4869 45.5446 18.4869H46.0386C46.2986 18.4869 46.5326 18.2529 46.5326 17.9929V8.58087C46.5326 8.32087 46.2986 8.08687 46.0386 8.08687H45.2326C44.9726 8.08687 44.7386 8.32087 44.7386 8.58087C44.7386 14.3529 44.7386 14.9509 44.7386 15.5229C44.7386 15.5229 43.6206 17.0049 41.6446 17.0049C40.1886 17.0049 39.3046 16.0429 39.3046 14.0669V8.58087C39.3046 8.32087 39.0706 8.08687 38.8106 8.08687H37.9786C37.7186 8.08687 37.4846 8.32087 37.4846 8.58087V14.0409Z" fill="black"/>
<path d="M50.9097 15.8869C50.9097 17.4989 51.2217 18.7469 53.3017 18.7469C54.5237 18.7469 55.9277 18.0969 56.2917 17.8629C56.5777 17.6809 56.6557 17.5249 56.4737 17.2129L56.0837 16.5629C55.9537 16.3549 55.8497 16.1989 55.4597 16.4069C55.1217 16.5889 54.2117 16.9789 53.5617 16.9789C52.9637 16.9789 52.7037 16.7709 52.7037 15.7309V9.64687H55.7197C56.0057 9.64687 56.2137 9.41286 56.2137 9.15286V8.58087C56.2137 8.29487 56.0057 8.08687 55.7197 8.08687H52.7037V5.14887C52.7037 4.88887 52.4957 4.65487 52.2357 4.65487L51.4037 4.70687C51.1437 4.70687 50.9097 4.94087 50.9097 5.20086V8.08687H49.5837C49.2977 8.08687 49.0897 8.29487 49.0897 8.58087V9.15286C49.0897 9.41286 49.2977 9.64687 49.5837 9.64687H50.9097V15.8869Z" fill="black"/>
</svg>
