<svg width="40" height="19" viewBox="0 0 40 19" fill="none" xmlns="http://www.w3.org/2000/svg">
<path d="M5.43938 18.4869C5.49138 18.6169 5.64738 18.7469 5.88138 18.7469H6.01138C6.24538 18.7469 6.40138 18.6169 6.45338 18.4869L10.8994 8.68489C11.0554 8.34688 10.8994 8.08689 10.5094 8.08689H9.83338C9.62538 8.08689 9.46938 8.21689 9.39138 8.37288L5.95938 15.8089H5.93338L2.70938 8.37288C2.63138 8.21689 2.47538 8.08689 2.24138 8.08689H1.43538C1.04538 8.08689 0.889375 8.34688 1.04538 8.68489L5.43938 18.4869Z" fill="black"/>
<path d="M14.0228 3.27688C14.7248 3.27688 15.2708 2.73088 15.2708 2.05488C15.2708 1.35288 14.7248 0.806885 14.0228 0.806885C13.3468 0.806885 12.8008 1.35288 12.8008 2.05488C12.8008 2.73088 13.3468 3.27688 14.0228 3.27688ZM13.1648 17.9929C13.1648 18.2529 13.3988 18.4869 13.6588 18.4869H14.4648C14.7248 18.4869 14.9588 18.2529 14.9588 17.9929V8.58088C14.9588 8.32088 14.7248 8.08689 14.4648 8.08689H13.6588C13.3988 8.08689 13.1648 8.32088 13.1648 8.58088V17.9929Z" fill="black"/>
<path d="M18.1552 17.5769C18.7272 18.0189 19.7932 18.7469 21.5352 18.7469C23.6672 18.7469 25.1232 17.3169 25.1232 15.8089C25.1232 13.9369 23.5112 13.1309 21.7172 12.2729C20.6512 11.7529 19.7932 11.3629 19.7932 10.5049C19.7932 10.0629 20.1052 9.46489 21.2752 9.46489C22.2372 9.46489 23.3552 10.0889 23.3552 10.0889C23.5892 10.2189 23.9532 10.1409 24.1092 9.85489L24.3172 9.43888C24.4732 9.15288 24.3952 8.78888 24.1612 8.63288C23.6672 8.29488 22.6272 7.82689 21.2752 7.82689C18.8572 7.82689 17.9732 9.43888 17.9732 10.5309C17.9732 12.2989 19.5592 13.2089 20.9372 13.8849C22.4452 14.6389 23.2252 15.0549 23.2252 15.9649C23.2252 16.6669 22.6012 17.2129 21.5352 17.2129C20.2092 17.2129 19.0912 16.3029 19.0912 16.3029C18.8052 16.1209 18.5192 16.1729 18.3892 16.3809C18.3112 16.5109 18.1292 16.8749 18.0252 17.0309C17.9472 17.2129 18.0252 17.4729 18.1552 17.5769Z" fill="black"/>
<path d="M28.7748 3.27688C29.4768 3.27688 30.0228 2.73088 30.0228 2.05488C30.0228 1.35288 29.4768 0.806885 28.7748 0.806885C28.0988 0.806885 27.5528 1.35288 27.5528 2.05488C27.5528 2.73088 28.0988 3.27688 28.7748 3.27688ZM27.9168 17.9929C27.9168 18.2529 28.1508 18.4869 28.4108 18.4869H29.2168C29.4768 18.4869 29.7108 18.2529 29.7108 17.9929V8.58088C29.7108 8.32088 29.4768 8.08689 29.2168 8.08689H28.4108C28.1508 8.08689 27.9168 8.32088 27.9168 8.58088V17.9929Z" fill="black"/>
<path d="M34.0772 15.8869C34.0772 17.4989 34.3892 18.7469 36.4692 18.7469C37.6912 18.7469 39.0952 18.0969 39.4592 17.8629C39.7452 17.6809 39.8232 17.5249 39.6412 17.2129L39.2512 16.5629C39.1212 16.3549 39.0172 16.1989 38.6272 16.4069C38.2892 16.5889 37.3792 16.9789 36.7292 16.9789C36.1312 16.9789 35.8712 16.7709 35.8712 15.7309V9.64688H38.8872C39.1732 9.64688 39.3812 9.41288 39.3812 9.15288V8.58088C39.3812 8.29488 39.1732 8.08689 38.8872 8.08689H35.8712V5.14888C35.8712 4.88889 35.6632 4.65489 35.4032 4.65489L34.5712 4.70688C34.3112 4.70688 34.0772 4.94088 34.0772 5.20088V8.08689H32.7512C32.4652 8.08689 32.2572 8.29488 32.2572 8.58088V9.15288C32.2572 9.41288 32.4652 9.64688 32.7512 9.64688H34.0772V15.8869Z" fill="black"/>
</svg>
