<svg width="50" height="19" viewBox="0 0 50 19" fill="none" xmlns="http://www.w3.org/2000/svg">
<path d="M2.25347 10.3489C2.25347 10.3489 3.31947 11.2069 5.03547 11.2069C7.89547 11.2069 10.0275 8.81487 10.0275 5.77287C10.0275 2.78287 7.94747 0.286865 5.11347 0.286865C3.24147 0.286865 2.09747 1.37886 2.09747 1.37886L1.91547 0.884865C1.81147 0.624865 1.73347 0.546865 1.49947 0.546865H0.953473C0.693473 0.546865 0.459473 0.780864 0.459473 1.04086V18.2529C0.459473 18.5129 0.693473 18.7469 0.953473 18.7469H1.75947C2.01947 18.7469 2.25347 18.5129 2.25347 18.2529V10.3489ZM2.27947 8.55486V3.19886C2.27947 3.19886 3.24147 1.92487 4.93147 1.92487C7.01147 1.92487 8.20747 3.71886 8.20747 5.74686C8.20747 7.82686 6.80347 9.46486 4.80147 9.46486C3.37147 9.46486 2.27947 8.55486 2.27947 8.55486Z" fill="black"/>
<path d="M12.9764 10.4529C12.9764 10.7129 13.2104 10.9469 13.4704 10.9469H14.2764C14.5364 10.9469 14.7704 10.7129 14.7704 10.4529V3.51086C14.7704 3.51086 15.6284 2.05486 17.6044 2.05486C17.9944 2.05486 18.3844 2.15886 18.6184 2.26287C18.8784 2.36687 19.1124 2.36686 19.2424 2.02886L19.5544 1.14487C19.8144 0.416864 18.5144 0.286865 17.7344 0.286865C15.5764 0.286865 14.6144 1.66486 14.6144 1.66486L14.4064 0.910866C14.3544 0.676866 14.1724 0.546865 13.9644 0.546865H13.4704C13.2104 0.546865 12.9764 0.780864 12.9764 1.04086V10.4529Z" fill="black"/>
<path d="M20.8299 5.74686C20.8299 8.73686 22.7799 11.2069 25.9259 11.2069C27.7199 11.2069 29.1239 10.5049 29.7479 10.0109C30.1379 9.72486 30.0339 9.56887 29.8519 9.33487C29.6959 9.12687 29.5659 8.94487 29.4099 8.73687C29.2019 8.45087 29.0459 8.58086 28.6819 8.78886C28.0839 9.15286 27.1999 9.56886 26.1079 9.56886C24.2619 9.56886 22.7279 7.93087 22.6239 6.18887H30.1119C30.3459 6.18887 30.5539 6.00686 30.5799 5.74686C30.6059 5.56486 30.6319 5.22686 30.6319 5.04486C30.6319 2.31486 28.6559 0.286865 25.9259 0.286865C22.7799 0.286865 20.8299 2.80886 20.8299 5.74686ZM22.6499 4.73286C22.8319 3.12086 24.1839 1.87287 25.9259 1.87287C27.5119 1.87287 28.7599 3.22486 28.8379 4.73286H22.6499Z" fill="black"/>
<path d="M32.9727 10.0369C33.5447 10.4789 34.6107 11.2069 36.3527 11.2069C38.4847 11.2069 39.9407 9.77687 39.9407 8.26887C39.9407 6.39687 38.3287 5.59086 36.5347 4.73286C35.4687 4.21286 34.6107 3.82286 34.6107 2.96486C34.6107 2.52287 34.9227 1.92487 36.0927 1.92487C37.0547 1.92487 38.1727 2.54886 38.1727 2.54886C38.4067 2.67886 38.7707 2.60087 38.9267 2.31487L39.1347 1.89886C39.2907 1.61286 39.2127 1.24886 38.9787 1.09286C38.4847 0.754865 37.4447 0.286865 36.0927 0.286865C33.6747 0.286865 32.7907 1.89886 32.7907 2.99086C32.7907 4.75886 34.3767 5.66887 35.7547 6.34487C37.2627 7.09887 38.0427 7.51487 38.0427 8.42487C38.0427 9.12687 37.4187 9.67286 36.3527 9.67286C35.0267 9.67286 33.9087 8.76287 33.9087 8.76287C33.6227 8.58086 33.3367 8.63286 33.2067 8.84086C33.1287 8.97086 32.9467 9.33487 32.8427 9.49087C32.7647 9.67287 32.8427 9.93287 32.9727 10.0369Z" fill="black"/>
<path d="M42.2403 10.0369C42.8123 10.4789 43.8783 11.2069 45.6203 11.2069C47.7523 11.2069 49.2083 9.77687 49.2083 8.26887C49.2083 6.39687 47.5963 5.59086 45.8023 4.73286C44.7363 4.21286 43.8783 3.82286 43.8783 2.96486C43.8783 2.52287 44.1903 1.92487 45.3603 1.92487C46.3223 1.92487 47.4403 2.54886 47.4403 2.54886C47.6743 2.67886 48.0382 2.60087 48.1943 2.31487L48.4023 1.89886C48.5583 1.61286 48.4803 1.24886 48.2463 1.09286C47.7523 0.754865 46.7123 0.286865 45.3603 0.286865C42.9423 0.286865 42.0583 1.89886 42.0583 2.99086C42.0583 4.75886 43.6443 5.66887 45.0223 6.34487C46.5303 7.09887 47.3103 7.51487 47.3103 8.42487C47.3103 9.12687 46.6862 9.67286 45.6203 9.67286C44.2943 9.67286 43.1763 8.76287 43.1763 8.76287C42.8903 8.58086 42.6043 8.63286 42.4743 8.84086C42.3963 8.97086 42.2143 9.33487 42.1103 9.49087C42.0323 9.67287 42.1103 9.93287 42.2403 10.0369Z" fill="black"/>
</svg>
