<svg width="54" height="12" viewBox="0 0 54 12" fill="none" xmlns="http://www.w3.org/2000/svg">
<path d="M0.108154 10.9929C0.108154 11.2529 0.342154 11.4869 0.602154 11.4869H1.40815C1.66815 11.4869 1.90215 11.2529 1.90215 10.9929V4.0509C1.90215 4.0509 3.02015 2.5689 4.86615 2.5689C6.45215 2.5689 7.33615 3.5309 7.33615 5.5069V10.9929C7.33615 11.2529 7.57015 11.4869 7.83015 11.4869H8.66216C8.92216 11.4869 9.15616 11.2529 9.15616 10.9929V5.5069C9.15616 4.9609 9.10416 4.4669 9.02616 4.0249C9.39016 3.6869 10.5082 2.5689 12.1982 2.5689C13.7062 2.5689 14.5382 3.5569 14.5382 5.5069V10.9929C14.5382 11.2529 14.7722 11.4869 15.0322 11.4869H15.8642C16.1242 11.4869 16.3582 11.2529 16.3582 10.9929V5.5069C16.3582 2.8029 15.3442 0.826904 12.3282 0.826904C10.2482 0.826904 8.58416 2.4129 8.45415 2.5169C7.77816 1.4249 6.66015 0.826904 5.12615 0.826904C2.96815 0.826904 1.74615 2.2049 1.74615 2.2049L1.51215 1.3989C1.46015 1.1909 1.33015 1.0869 1.09615 1.0869H0.602154C0.342154 1.0869 0.108154 1.3209 0.108154 1.5809V10.9929Z" fill="black"/>
<path d="M19.1588 6.2869C19.1588 9.2769 21.1088 11.7469 24.2548 11.7469C26.0488 11.7469 27.4528 11.0449 28.0768 10.5509C28.4668 10.2649 28.3628 10.1089 28.1808 9.8749C28.0248 9.6669 27.8948 9.48491 27.7388 9.27691C27.5308 8.9909 27.3748 9.1209 27.0108 9.3289C26.4128 9.6929 25.5288 10.1089 24.4368 10.1089C22.5908 10.1089 21.0568 8.4709 20.9528 6.7289H28.4408C28.6748 6.7289 28.8828 6.5469 28.9088 6.2869C28.9348 6.1049 28.9608 5.7669 28.9608 5.5849C28.9608 2.8549 26.9848 0.826904 24.2548 0.826904C21.1088 0.826904 19.1588 3.3489 19.1588 6.2869ZM20.9788 5.2729C21.1608 3.6609 22.5128 2.4129 24.2548 2.4129C25.8408 2.4129 27.0888 3.7649 27.1668 5.2729H20.9788Z" fill="black"/>
<path d="M31.7957 10.9929C31.7957 11.2529 32.0297 11.4869 32.2897 11.4869H33.0957C33.3557 11.4869 33.5897 11.2529 33.5897 10.9929V4.0509C33.5897 4.0509 34.9937 2.5689 36.9437 2.5689C38.3997 2.5689 39.2837 3.5309 39.2837 5.5069V10.9929C39.2837 11.2529 39.5177 11.4869 39.7777 11.4869H40.6097C40.8697 11.4869 41.1037 11.2529 41.1037 10.9929V5.5069C41.1037 2.8029 40.0897 0.826904 37.0737 0.826904C34.9157 0.826904 33.4337 2.2049 33.4337 2.2049L33.1997 1.3989C33.1477 1.1909 33.0177 1.0869 32.7837 1.0869H32.2897C32.0297 1.0869 31.7957 1.3209 31.7957 1.5809V10.9929Z" fill="black"/>
<path d="M44.5387 7.0409C44.5387 9.79691 45.5527 11.7469 48.5687 11.7469C50.7267 11.7469 51.9487 10.3689 51.9487 10.3689L52.1307 11.0449C52.2087 11.3049 52.3127 11.4869 52.5987 11.4869H53.0927C53.3527 11.4869 53.5867 11.2529 53.5867 10.9929V1.5809C53.5867 1.3209 53.3527 1.0869 53.0927 1.0869H52.2867C52.0267 1.0869 51.7927 1.3209 51.7927 1.5809C51.7927 7.3529 51.7927 7.9509 51.7927 8.5229C51.7927 8.5229 50.6747 10.0049 48.6987 10.0049C47.2427 10.0049 46.3587 9.0429 46.3587 7.0669V1.5809C46.3587 1.3209 46.1247 1.0869 45.8647 1.0869H45.0327C44.7727 1.0869 44.5387 1.3209 44.5387 1.5809V7.0409Z" fill="black"/>
</svg>
