<svg width="83" height="40" viewBox="0 0 83 40" fill="none" xmlns="http://www.w3.org/2000/svg">
<path d="M55.5134 0.734375C49.253 0.734375 44.1587 5.8287 44.1587 12.0891V27.811C44.1587 34.0714 49.253 39.1657 55.5134 39.1657H71.2353C77.4957 39.1657 82.5901 34.0714 82.5901 27.811V12.0891C82.5901 5.8287 77.4957 0.734375 71.2353 0.734375H55.5134ZM55.5134 2.48126H71.2353C76.5515 2.48126 80.8432 6.77292 80.8432 12.0891V27.811C80.8432 33.1272 76.5515 37.4189 71.2353 37.4189H55.5134C50.1972 37.4189 45.9056 33.1272 45.9056 27.811V12.0891C45.9056 6.77292 50.1972 2.48126 55.5134 2.48126ZM73.8557 7.7219C73.3924 7.7219 72.948 7.90594 72.6204 8.23355C72.2928 8.56115 72.1088 9.00548 72.1088 9.46878C72.1088 9.93208 72.2928 10.3764 72.6204 10.704C72.948 11.0316 73.3924 11.2157 73.8557 11.2157C74.319 11.2157 74.7633 11.0316 75.0909 10.704C75.4185 10.3764 75.6025 9.93208 75.6025 9.46878C75.6025 9.00548 75.4185 8.56115 75.0909 8.23355C74.7633 7.90594 74.319 7.7219 73.8557 7.7219ZM63.3744 10.3422C58.0785 10.3422 53.7665 14.6541 53.7665 19.9501C53.7665 25.246 58.0785 29.5579 63.3744 29.5579C68.6703 29.5579 72.9822 25.246 72.9822 19.9501C72.9822 14.6541 68.6703 10.3422 63.3744 10.3422ZM63.3744 12.0891C67.7262 12.0891 71.2353 15.5982 71.2353 19.9501C71.2353 24.3019 67.7262 27.811 63.3744 27.811C59.0225 27.811 55.5134 24.3019 55.5134 19.9501C55.5134 15.5982 59.0225 12.0891 63.3744 12.0891Z" fill="black"/>
<path d="M15.3929 0.734375C12.6607 0.734375 10.3006 1.56728 8.64392 3.21303C6.98728 4.85878 6.08531 7.2709 6.08531 10.2313V14.1018H1.07253C0.850953 14.1018 0.638463 14.1899 0.481787 14.3465C0.325112 14.5032 0.237083 14.7157 0.237061 14.9373V21.621C0.237083 21.8426 0.325112 22.0551 0.481787 22.2117C0.638463 22.3684 0.850953 22.4564 1.07253 22.4565H6.08531V38.3303C6.08534 38.5519 6.17336 38.7643 6.33004 38.921C6.48672 39.0777 6.69921 39.1657 6.92078 39.1657H13.6045C13.8261 39.1657 14.0386 39.0777 14.1952 38.921C14.3519 38.7643 14.4399 38.5519 14.44 38.3303V22.4565H20.2882C20.4917 22.4564 20.6882 22.3822 20.8408 22.2476C20.9934 22.113 21.0917 21.9273 21.1171 21.7254L21.9526 15.0417C21.9674 14.9241 21.957 14.8047 21.9221 14.6914C21.8873 14.5781 21.8287 14.4736 21.7503 14.3847C21.6719 14.2958 21.5754 14.2246 21.4674 14.1758C21.3594 14.127 21.2422 14.1018 21.1237 14.1018H14.44V10.76C14.44 9.82702 15.178 9.08902 16.1109 9.08902H21.1237C21.3452 9.089 21.5577 9.00097 21.7144 8.84429C21.8711 8.68762 21.9591 8.47513 21.9591 8.25356V1.85866C21.9589 1.65619 21.8851 1.4607 21.7516 1.30853C21.618 1.15636 21.4337 1.05787 21.233 1.03136C20.4947 0.9334 17.8296 0.734375 15.3929 0.734375ZM15.3929 2.4053C17.4297 2.4053 19.3985 2.56826 20.2882 2.6517V7.41809H16.1109C14.2751 7.41809 12.769 8.92416 12.769 10.76V14.9373C12.7691 15.1588 12.8571 15.3713 13.0138 15.528C13.1704 15.6847 13.3829 15.7727 13.6045 15.7727H20.1773L19.5507 20.7855H13.6045C13.3829 20.7855 13.1704 20.8736 13.0138 21.0303C12.8571 21.1869 12.7691 21.3994 12.769 21.621V37.4948H7.75624V21.621C7.75622 21.3994 7.66819 21.1869 7.51152 21.0303C7.35484 20.8736 7.14235 20.7855 6.92078 20.7855H1.90799V15.7727H6.92078C7.14235 15.7727 7.35484 15.6847 7.51152 15.528C7.66819 15.3713 7.75622 15.1588 7.75624 14.9373V10.2313C7.75624 7.60403 8.52512 5.6861 9.82206 4.39769C11.119 3.10929 12.9945 2.4053 15.3929 2.4053Z" fill="black"/>
</svg>
